<?xml version="1.0" encoding="utf-8"?>
<!-- Generator: Adobe Illustrator 19.0.0, SVG Export Plug-In . SVG Version: 6.00 Build 0)  -->
<svg version="1.0" id="Layer_1" xmlns="http://www.w3.org/2000/svg" xmlns:xlink="http://www.w3.org/1999/xlink" x="0px" y="0px"
	 viewBox="0 0 33.3 33.3" style="enable-background:new 0 0 33.3 33.3;" xml:space="preserve">
<style type="text/css">
	.st0{fill:#FFFFFF;}
</style>
<path id="Path_17_" class="st0" d="M16.2,10.3l0.1,1.2L15,11.3c-4.3-0.6-8.1-2.4-11.4-5.6L2.1,4.1L1.7,5.3c-0.9,2.6-0.3,5.3,1.5,7.1
	c1,1,0.7,1.2-0.9,0.6c-0.6-0.2-1.1-0.3-1.1-0.3C1,12.9,1.6,15.1,2,15.9c0.6,1.2,1.9,2.4,3.3,3.1l1.2,0.6l-1.4,0
	c-1.3,0-1.4,0-1.2,0.5c0.5,1.6,2.4,3.2,4.5,4l1.5,0.5l-1.3,0.8c-1.9,1.1-4.2,1.7-6.4,1.8c-1.1,0-2,0.1-2,0.2c0,0.2,2.9,1.6,4.6,2.1
	c5.1,1.6,11.1,0.9,15.7-1.8c3.2-1.9,6.4-5.7,7.9-9.3c0.8-2,1.6-5.5,1.6-7.2c0-1.1,0.1-1.3,1.4-2.6c0.8-0.8,1.5-1.6,1.7-1.9
	c0.2-0.5,0.2-0.5-1,0c-2,0.7-2.3,0.6-1.3-0.5c0.7-0.8,1.6-2.2,1.6-2.6c0-0.1-0.4,0-0.8,0.3c-0.4,0.2-1.4,0.6-2.1,0.8l-1.3,0.4
	L27,4.3c-0.6-0.4-1.6-0.9-2-1.1c-1.2-0.3-3.1-0.3-4.2,0.1C17.8,4.4,16,7.2,16.2,10.3z"/>
</svg>
