<?xml version="1.0" encoding="utf-8"?>
<!-- Generator: Adobe Illustrator 19.0.0, SVG Export Plug-In . SVG Version: 6.00 Build 0)  -->
<svg version="1.0" id="Layer_1" xmlns="http://www.w3.org/2000/svg" xmlns:xlink="http://www.w3.org/1999/xlink" x="0px" y="0px"
	 viewBox="-14 15.8 40.2 40.2" style="enable-background:new -14 15.8 40.2 40.2;" xml:space="preserve">
<style type="text/css">
	.st0{fill:#5282C6;}
</style>
<path id="XMLID_10_" class="st0" d="M6.1,17.8c-10,0-18.1,8.1-18.1,18.1C-12,45.9-3.9,54,6.1,54c10,0,18.1-8.1,18.1-18.1
	C24.2,25.9,16.1,17.8,6.1,17.8z M6.1,23.2C6.1,23.2,6.1,23.2,6.1,23.2c2.4,0,4.7,2.1,4.4,5.4c-0.3,3.6-2,6.4-4.4,6.4c0,0,0,0-0.1,0
	c-2.4,0-4.1-2.8-4.4-6.4C1.5,25.3,3.7,23.2,6.1,23.2z M6.1,46.2L6.1,46.2C6.1,46.2,6.1,46.2,6.1,46.2C6.1,46.2,6.1,46.2,6.1,46.2
	L6.1,46.2c-3.9-0.2-7.2-1.3-9.4-2.8c0.5-4.2,3.7-7.5,7.7-8.1c0.5,0.4,1.1,0.6,1.7,0.6c0.6,0,1.2-0.2,1.7-0.6c4,0.6,7.2,3.9,7.7,8.1
	C13.3,44.9,10,46,6.1,46.2z"/>
</svg>
