<?xml version="1.0" encoding="utf-8"?>
<!-- Generator: Adobe Illustrator 19.0.0, SVG Export Plug-In . SVG Version: 6.00 Build 0)  -->
<svg version="1.0" id="Layer_1" xmlns="http://www.w3.org/2000/svg" xmlns:xlink="http://www.w3.org/1999/xlink" x="0px" y="0px"
	 viewBox="-14 15.8 40.2 40.2" style="enable-background:new -14 15.8 40.2 40.2;" xml:space="preserve">
<style type="text/css">
	.st0{fill:#5282C6;}
</style>
<g id="XMLID_58_">
	<path id="XMLID_62_" class="st0" d="M4.8,39.3c0.5,0.8,0.4,2-0.3,2.7c-0.7,0.7-1.8,0.8-2.7,0.3l-2,2c0,0-5.3,5.3-6.1,6.1
		c0.2,0.2,0.5,0.4,1.6-0.6c3-2.8,8-4,11-4.4C9.5,45,12,45,13,44c1.3-1.3,1.3-1.3,1.2-4.2c-0.1-2,2.3-5.7,3.9-7.3
		c0.2-0.2,0.4-0.4,0.6-0.6l-3.2-3.2L4.8,39.3z"/>
	<path id="XMLID_65_" class="st0" d="M-2,37.1c-0.4,3-1.6,8-4.4,11c-1,1.1-0.7,1.5-0.6,1.6c0.7-0.7,6.1-6.1,6.1-6.1l2-2
		c-0.6-0.8-0.5-2,0.3-2.8c0.7-0.7,1.9-0.8,2.8-0.3L14.8,28l-3.2-3.2c-0.2,0.2-0.5,0.5-0.6,0.6c-1.6,1.6-5.3,3.9-7.3,3.9
		c-2.9-0.1-3,0-4.2,1.2C-1.5,31.5-1.5,34-2,37.1z"/>
	<path id="XMLID_63_" class="st0" d="M18.7,24.1"/>
	<path id="XMLID_57_" class="st0" d="M19.6,31l1.3,1.3l4.7-4.7L16,17.9l-4.7,4.7l1.3,1.3"/>
</g>
<path id="XMLID_2_" class="st0" d="M-8,52.3c-2.3-3.2-4.2-8.1-4.9-12.1c-0.5-3.2,0.2-6.7,2-10c1.5-2.8,1.3-5.3,0.8-5.8l0.7-1.2
	c1.2,1.1,1.3,4.6-0.5,7.9c-1.6,2.9-2.3,6.1-1.9,8.9c0.6,3.8,2.4,8.4,4.6,11.4L-8,52.3z"/>
</svg>
