<?xml version="1.0" encoding="utf-8"?>
<!-- Generator: Adobe Illustrator 19.0.0, SVG Export Plug-In . SVG Version: 6.00 Build 0)  -->
<svg version="1.0" id="Layer_1" xmlns="http://www.w3.org/2000/svg" xmlns:xlink="http://www.w3.org/1999/xlink" x="0px" y="0px"
	 viewBox="0 0 40.2 40.2" style="enable-background:new 0 0 40.2 40.2;" xml:space="preserve">
<style type="text/css">
	.st0{fill:#CDCCCC;}
</style>
<path class="st0" d="M28,10.5c-4.8-4.8-12.7-4.8-17.5,0c-4.8,4.8-4.8,12.7,0,17.5c3.9,3.9,9.9,4.7,14.5,2.2l3.2,3.2
	c1.4,1.4,3.8,1.4,5.2,0l0,0c1.4-1.4,1.4-3.8,0-5.2L30.2,25C32.7,20.3,32,14.4,28,10.5z M25.1,25.1c-3.2,3.2-8.5,3.2-11.7,0
	c-3.2-3.2-3.2-8.5,0-11.7c3.2-3.2,8.5-3.2,11.7,0C28.3,16.6,28.3,21.9,25.1,25.1z"/>
</svg>
