<?xml version="1.0" encoding="utf-8"?>
<!-- Generator: Adobe Illustrator 19.0.0, SVG Export Plug-In . SVG Version: 6.00 Build 0)  -->
<svg version="1.0" id="Layer_1" xmlns="http://www.w3.org/2000/svg" xmlns:xlink="http://www.w3.org/1999/xlink" x="0px" y="0px"
	 viewBox="0 0 40.2 40.2" style="enable-background:new 0 0 40.2 40.2;" xml:space="preserve">
<style type="text/css">
	.st0{fill:#1C598F;}
</style>
<g id="XMLID_67_">
	<g id="XMLID_147_">
		<path id="XMLID_148_" class="st0" d="M38.7,25.3c0-0.7-0.1-1.9-0.5-2.6c-0.2-0.5-1.7-1.3-2.6-1.6c-0.9-0.2-1.5-0.5-2.5-1.1
			c-0.9-0.6-4.1-4.5-4.9-5.4c-0.7-0.7-2.5-2.3-3-2.6c-0.6-0.3-1.4-0.7-3.5-0.8c-1,0-16.1-0.3-16.5-0.3c-0.4,0-1,0.1-1.3,0.8
			c-0.2,0.7-1.3,5.9-1.4,8.4c-0.1,2.5-0.2,3.2-0.1,5.4c0,0.8,0.4,0.7,1.1,0.9c0,0,2.4,0.6,3.4,0.6c-0.2-2.8,2.4-3.2,3-3.1
			c0.9,0.1,3,0.7,3,3.5c1.7,0.3,16.8,0.4,17.3,0.4c-0.3-2.5,1.4-3.8,3-3.8c1.5,0,3.1,0.8,3.1,3.5c1.2-0.2,1.7-0.4,2.2-0.8
			C38.9,26.4,38.7,26,38.7,25.3z M26.9,20.1c-0.6-0.2-1.1,0-1.3-0.7c-0.2-0.7-0.4-1.9-0.4-2.2c0-0.3-0.3-1,0.1-1.1
			c0.4-0.1,2.1,0.2,2.5,0.3c0.4,0.1,1,0.4,1.3,0.7c0.3,0.4,3.2,3.6,3.7,4.3C32.9,21.3,27.5,20.3,26.9,20.1z M33.3,24.9
			c-1.3,0-2.4,1.1-2.4,2.4c0,1.3,1.1,2.4,2.4,2.4c1.3,0,2.4-1.1,2.4-2.4C35.6,26,34.6,24.9,33.3,24.9z M33.3,28.7
			c-0.8,0-1.4-0.6-1.4-1.4c0-0.8,0.6-1.4,1.4-1.4c0.8,0,1.4,0.6,1.4,1.4C34.7,28.1,34,28.7,33.3,28.7z M9.8,24.7
			c-1.3,0-2.4,1.1-2.4,2.4c0,1.3,1.1,2.4,2.4,2.4c1.3,0,2.4-1.1,2.4-2.4C12.2,25.8,11.2,24.7,9.8,24.7z M9.8,28.5
			c-0.8,0-1.4-0.6-1.4-1.4c0-0.8,0.6-1.4,1.4-1.4c0.8,0,1.4,0.6,1.4,1.4C11.2,27.9,10.6,28.5,9.8,28.5z"/>
	</g>
</g>
</svg>
