<?xml version="1.0" encoding="utf-8"?>
<!-- Generator: Adobe Illustrator 19.0.0, SVG Export Plug-In . SVG Version: 6.00 Build 0)  -->
<svg version="1.0" id="Layer_1" xmlns="http://www.w3.org/2000/svg" xmlns:xlink="http://www.w3.org/1999/xlink" x="0px" y="0px"
	 viewBox="-14 15.8 40.2 40.2" style="enable-background:new -14 15.8 40.2 40.2;" xml:space="preserve">
<style type="text/css">
	.st0{fill:#1D1D1B;}
</style>
<path class="st0" d="M25.1,34.6L6.8,16.3c-0.4-0.4-1-0.4-1.4,0l-18.3,18.3c-0.4,0.4-0.2,0.7,0.3,0.7h4c0.5,0,1,0.4,1,1V55
	c0,0.5,0.4,1,1,1H5.2c0.5,0,1.4,0,1.9,0h11.8c0.5,0,1-0.4,1-1V36.2c0-0.5,0.4-1,1-1h4C25.4,35.3,25.5,35,25.1,34.6z M5.1,49h-6v-6h6
	V49z M5.1,41.3h-6v-6h6V41.3z M12.9,49h-6v-6h6V49z M12.9,41.3h-6v-6h6V41.3z"/>
</svg>
