<?xml version="1.0" encoding="utf-8"?>
<!-- Generator: Adobe Illustrator 19.0.0, SVG Export Plug-In . SVG Version: 6.00 Build 0)  -->
<svg version="1.0" id="Layer_1" xmlns="http://www.w3.org/2000/svg" xmlns:xlink="http://www.w3.org/1999/xlink" x="0px" y="0px"
	 viewBox="0 0 33.3 33.3" style="enable-background:new 0 0 33.3 33.3;" xml:space="preserve">
<style type="text/css">
	.st0{fill:#FFFFFF;}
</style>
<g id="XMLID_8_">
	<path id="XMLID_74_" class="st0" d="M29,16.6c-1.3-1.3-12-1.3-12-1.3c0,0-10.8,0-12,1.3c-1.3,1.3-1.3,7.6-1.3,7.6
		c0,0,0,6.3,1.3,7.6c1.3,1.3,12,1.3,12,1.3s10.8,0,12-1.3c1.3-1.3,1.3-7.6,1.3-7.6C30.3,24.2,30.3,17.9,29,16.6z M9.8,20.3v9.1H8
		v-9.1H6.2v-1.6h5.4l0,1.6H9.8z M16.7,29.4h-1.6v-0.9c-0.3,0.3-0.6,0.6-0.9,0.7c-0.3,0.2-0.6,0.3-0.9,0.3c-0.4,0-0.6-0.1-0.8-0.4
		c-0.2-0.2-0.3-0.6-0.3-1.1v-6.6h1.6v6.1c0,0.2,0,0.3,0.1,0.4c0.1,0.1,0.2,0.1,0.3,0.1c0.1,0,0.3-0.1,0.4-0.2
		c0.2-0.1,0.3-0.3,0.5-0.4v-6h1.6L16.7,29.4z M22.3,27.8c0,0.6-0.1,1-0.4,1.3c-0.2,0.3-0.6,0.4-1.1,0.4c-0.3,0-0.6-0.1-0.8-0.2
		c-0.2-0.1-0.5-0.3-0.7-0.5v0.6h-1.6V18.7h1.6v3.4c0.2-0.2,0.4-0.4,0.7-0.5c0.2-0.1,0.5-0.2,0.7-0.2c0.5,0,0.9,0.2,1.1,0.5
		c0.3,0.3,0.4,0.8,0.4,1.5V27.8z M27.7,27.2c0,0.8-0.2,1.4-0.6,1.8c-0.4,0.4-1,0.6-1.7,0.6c-0.7,0-1.2-0.2-1.6-0.7
		c-0.4-0.4-0.6-1-0.6-1.8v-3.5c0-0.7,0.2-1.2,0.7-1.7c0.4-0.4,1-0.6,1.7-0.6c0.7,0,1.3,0.2,1.6,0.6c0.4,0.4,0.6,1,0.6,1.7v2l-3,0
		v1.5c0,0.4,0.1,0.7,0.2,0.9c0.1,0.2,0.3,0.2,0.5,0.2c0.3,0,0.4-0.1,0.5-0.2c0.1-0.1,0.2-0.4,0.2-0.9v-0.4h1.6V27.2z"/>
	<path id="XMLID_73_" class="st0" d="M20.1,22.7c-0.1,0-0.2,0-0.3,0.1c-0.1,0.1-0.2,0.1-0.3,0.2v4.9c0.1,0.1,0.2,0.2,0.4,0.3
		c0.1,0.1,0.2,0.1,0.4,0.1c0.2,0,0.3-0.1,0.4-0.2c0.1-0.1,0.1-0.3,0.1-0.5v-4.1c0-0.3-0.1-0.5-0.2-0.6
		C20.5,22.8,20.3,22.7,20.1,22.7z"/>
	<path id="XMLID_72_" class="st0" d="M26.1,23.7c0-0.3-0.1-0.6-0.2-0.7c-0.1-0.1-0.3-0.2-0.5-0.2c-0.2,0-0.4,0.1-0.5,0.2
		c-0.1,0.1-0.2,0.4-0.2,0.7v0.8h1.4V23.7z"/>
	<polygon id="XMLID_71_" class="st0" points="9.5,12 11.5,12 11.5,7.1 13.8,0.2 11.8,0.2 10.6,4.9 10.5,4.9 9.2,0.2 7.2,0.2 
		9.5,7.3 	"/>
	<path id="XMLID_68_" class="st0" d="M14.6,11.6c0.5,0.4,1.1,0.7,1.8,0.7c0.8,0,1.4-0.2,1.9-0.6c0.5-0.4,0.7-1,0.7-1.7V5.3
		c0-0.7-0.2-1.2-0.7-1.6c-0.5-0.4-1.1-0.6-1.8-0.6c-0.8,0-1.4,0.2-1.9,0.6c-0.5,0.4-0.7,0.9-0.7,1.6l0,4.5
		C13.9,10.5,14.2,11.1,14.6,11.6z M15.7,5.2c0-0.2,0.1-0.3,0.2-0.5c0.1-0.1,0.3-0.2,0.5-0.2c0.2,0,0.4,0.1,0.6,0.2
		c0.1,0.1,0.2,0.3,0.2,0.5V10c0,0.2-0.1,0.4-0.2,0.5c-0.1,0.1-0.3,0.2-0.6,0.2c-0.2,0-0.4-0.1-0.5-0.2c-0.1-0.1-0.2-0.3-0.2-0.6V5.2
		z"/>
	<path id="XMLID_9_" class="st0" d="M21.7,12.1c0.3,0,0.7-0.1,1-0.3c0.4-0.2,0.7-0.5,1-0.8v1h1.7V3.3h-1.7v6.6
		c-0.2,0.2-0.3,0.3-0.5,0.5c-0.2,0.1-0.4,0.2-0.5,0.2c-0.2,0-0.3,0-0.4-0.1c-0.1-0.1-0.1-0.2-0.1-0.4V3.3h-1.7v7.3
		c0,0.5,0.1,0.9,0.3,1.2C21,12,21.3,12.1,21.7,12.1z"/>
</g>
</svg>
