<?xml version="1.0" encoding="utf-8"?>
<!-- Generator: Adobe Illustrator 19.0.0, SVG Export Plug-In . SVG Version: 6.00 Build 0)  -->
<svg version="1.0" id="Layer_1" xmlns="http://www.w3.org/2000/svg" xmlns:xlink="http://www.w3.org/1999/xlink" x="0px" y="0px"
	 viewBox="-17 19.7 33.3 33.3" style="enable-background:new -17 19.7 33.3 33.3;" xml:space="preserve">
<style type="text/css">
	.st0{fill:#FFFFFF;}
</style>
<path class="st0" d="M15.7,30.2c0,0.6-0.5,1.1-1.1,1.1h-29.9c-0.6,0-1.1-0.5-1.1-1.1v-0.6c0-0.6,0.5-1.1,1.1-1.1h29.9
	c0.6,0,1.1,0.5,1.1,1.1C15.7,29.6,15.7,30.2,15.7,30.2z"/>
<path class="st0" d="M15.7,36.9c0,0.6-0.5,1.1-1.1,1.1h-29.9c-0.6,0-1.1-0.5-1.1-1.1v-0.6c0-0.6,0.5-1.1,1.1-1.1h29.9
	c0.6,0,1.1,0.5,1.1,1.1C15.7,36.3,15.7,36.9,15.7,36.9z"/>
<path class="st0" d="M15.7,43.5c0,0.6-0.5,1.1-1.1,1.1h-29.9c-0.6,0-1.1-0.5-1.1-1.1v-0.6c0-0.6,0.5-1.1,1.1-1.1h29.9
	c0.6,0,1.1,0.5,1.1,1.1C15.7,42.9,15.7,43.5,15.7,43.5z"/>
</svg>
