<?xml version="1.0" encoding="utf-8"?>
<!-- Generator: Adobe Illustrator 19.0.0, SVG Export Plug-In . SVG Version: 6.00 Build 0)  -->
<svg version="1.0" id="Layer_1" xmlns="http://www.w3.org/2000/svg" xmlns:xlink="http://www.w3.org/1999/xlink" x="0px" y="0px"
	 viewBox="-14 15.8 40.2 40.2" style="enable-background:new -14 15.8 40.2 40.2;" xml:space="preserve">
<path id="XMLID_67_" d="M17.3,20.4H-5.3c-3.6,0-6.6,3-6.6,6.6v17.8c0,3.6,3,6.6,6.6,6.6h22.7c3.6,0,6.6-3,6.6-6.6V27
	C23.9,23.4,21,20.4,17.3,20.4z M-1,34.9c0-1,1.3-2.3,2.7-4.2c1.4-1.8,3.3-5,3.4-8c0-1.1,0.4-1.1,0.6-1.1c0,0.8,0,6.3,0,6.3V30
	c-0.7,0.2-1.2,0.8-1.2,1.6S5,33,5.7,33.2v11.1H2.4c0-0.3,0-0.5,0-0.7c0-1.6-0.7-4.8-1.8-5.8C-1,36.3-1,36.2-1,34.9z M11,50H1v-4.9
	h1.4h7.3h1.4V50H11z M11.4,37.7c-1.1,1-1.8,4.2-1.8,5.8c0,0.2,0,0.4,0,0.7H6.4V33.1c0.7-0.1,1.3-0.8,1.3-1.6s-0.6-1.4-1.3-1.6v-2.1
	c0,0,0-5.5,0-6.3c0.2,0,0.5,0.1,0.6,1.1c0.1,3,2.1,6.2,3.4,8c1.4,1.9,2.7,3.2,2.7,4.2C13,36.2,13,36.3,11.4,37.7z"/>
</svg>
