<?xml version="1.0" encoding="utf-8"?>
<!-- Generator: Adobe Illustrator 19.0.0, SVG Export Plug-In . SVG Version: 6.00 Build 0)  -->
<svg version="1.0" id="Layer_1" xmlns="http://www.w3.org/2000/svg" xmlns:xlink="http://www.w3.org/1999/xlink" x="0px" y="0px"
	 viewBox="-14 15.8 40.2 40.2" style="enable-background:new -14 15.8 40.2 40.2;" xml:space="preserve">
<path id="XMLID_37_" d="M17.4,20.4H-5.2c-3.6,0-6.6,3-6.6,6.6v17.8c0,3.6,3,6.6,6.6,6.6h22.7c3.6,0,6.6-3,6.6-6.6V27
	C24,23.4,21.1,20.4,17.4,20.4z M6.1,22.1C6.1,22.1,6.1,22.1,6.1,22.1c3.7,0,7.1,3.3,6.7,8.2c-0.4,5.5-3,9.8-6.6,9.8c0,0-0.1,0-0.1,0
	c-3,0-5.2-2.8-6.2-6.8c1.3,1,2.8,1.7,4.4,2c0.3,0.5,0.8,0.9,1.5,0.9c0.9,0,1.7-0.8,1.7-1.7c0-0.9-0.8-1.7-1.7-1.7
	c-0.5,0-0.9,0.2-1.2,0.5c-2-0.5-3.8-1.6-5.1-3.2C-0.9,25.4,2.5,22.1,6.1,22.1z M6.2,49.7c-0.1,0-0.1,0-0.2,0c-5.2,0-12.4,0-14.2,0
	c0-5.2,4.7-9.6,9.9-10.3c0.5,0.6,2.1,1.9,4.4,2c2.3,0,3.9-1.3,4.4-2c5.1,0.7,9.9,5.2,9.9,10.3C18.6,49.7,11.4,49.7,6.2,49.7z"/>
</svg>
