<?xml version="1.0" encoding="utf-8"?>
<!-- Generator: Adobe Illustrator 19.0.0, SVG Export Plug-In . SVG Version: 6.00 Build 0)  -->
<svg version="1.0" id="Layer_1" xmlns="http://www.w3.org/2000/svg" xmlns:xlink="http://www.w3.org/1999/xlink" x="0px" y="0px"
	 viewBox="-14 15.8 40.2 40.2" style="enable-background:new -14 15.8 40.2 40.2;" xml:space="preserve">
<style type="text/css">
	.st0{fill:#1D1D1B;}
</style>
<path class="st0" d="M14,26.3c-4.8-4.8-12.7-4.8-17.5,0s-4.8,12.7,0,17.5C0.4,47.7,6.4,48.5,11,46l3.2,3.2c1.4,1.4,3.8,1.4,5.2,0
	l0,0c1.4-1.4,1.4-3.8,0-5.2l-3.2-3.2C18.7,36.1,18,30.2,14,26.3z M11.1,40.9c-3.2,3.2-8.5,3.2-11.7,0c-3.2-3.2-3.2-8.5,0-11.7
	s8.5-3.2,11.7,0S14.3,37.7,11.1,40.9z"/>
</svg>
