<?xml version="1.0" encoding="utf-8"?>
<!-- Generator: Adobe Illustrator 19.0.0, SVG Export Plug-In . SVG Version: 6.00 Build 0)  -->
<svg version="1.0" id="Layer_1" xmlns="http://www.w3.org/2000/svg" xmlns:xlink="http://www.w3.org/1999/xlink" x="0px" y="0px"
	 viewBox="-14 15.8 40.2 40.2" style="enable-background:new -14 15.8 40.2 40.2;" xml:space="preserve">
<style type="text/css">
	.st0{fill:#1D1D1B;}
</style>
<g id="XMLID_67_">
	<g id="XMLID_147_">
		<path id="XMLID_148_" class="st0" d="M23.4,38.1c0-0.7-0.1-1.9-0.5-2.6c-0.2-0.5-1.7-1.3-2.6-1.6c-0.9-0.2-1.5-0.5-2.5-1.1
			c-0.9-0.6-4.1-4.5-4.9-5.4c-0.7-0.7-2.5-2.3-3-2.6c-0.6-0.3-1.4-0.7-3.5-0.8c-1,0-16.1-0.3-16.5-0.3s-1,0.1-1.3,0.8
			c-0.2,0.7-1.3,5.9-1.4,8.4s-0.2,3.2-0.1,5.4c0,0.8,0.4,0.7,1.1,0.9c0,0,2.4,0.6,3.4,0.6c-0.2-2.8,2.4-3.2,3-3.1
			c0.9,0.1,3,0.7,3,3.5c1.7,0.3,16.8,0.4,17.3,0.4c-0.3-2.5,1.4-3.8,3-3.8c1.5,0,3.1,0.8,3.1,3.5c1.2-0.2,1.7-0.4,2.2-0.8
			C23.6,39.2,23.4,38.8,23.4,38.1z M11.6,32.9c-0.6-0.2-1.1,0-1.3-0.7S9.9,30.3,9.9,30s-0.3-1,0.1-1.1c0.4-0.1,2.1,0.2,2.5,0.3
			s1,0.4,1.3,0.7c0.3,0.4,3.2,3.6,3.7,4.3C17.6,34.1,12.2,33.1,11.6,32.9z M18,37.7c-1.3,0-2.4,1.1-2.4,2.4s1.1,2.4,2.4,2.4
			s2.4-1.1,2.4-2.4C20.3,38.8,19.3,37.7,18,37.7z M18,41.5c-0.8,0-1.4-0.6-1.4-1.4c0-0.8,0.6-1.4,1.4-1.4s1.4,0.6,1.4,1.4
			S18.7,41.5,18,41.5z M-5.5,37.5c-1.3,0-2.4,1.1-2.4,2.4c0,1.3,1.1,2.4,2.4,2.4s2.4-1.1,2.4-2.4C-3.1,38.6-4.1,37.5-5.5,37.5z
			 M-5.5,41.3c-0.8,0-1.4-0.6-1.4-1.4c0-0.8,0.6-1.4,1.4-1.4s1.4,0.6,1.4,1.4C-4.1,40.7-4.7,41.3-5.5,41.3z"/>
	</g>
</g>
</svg>
